<svg xmlns="http://www.w3.org/2000/svg" viewBox="0 0 100 100">
  <circle cx="50" cy="50" r="50" fill="#E0F2FE"/>
  <!-- Shell bottom -->
  <ellipse cx="50" cy="68" rx="28" ry="18" fill="#F0997B"/>
  <!-- Shell lines -->
  <path d="M50 86 Q35 75 34 60" stroke="#D85A30" stroke-width="1.5" fill="none"/>
  <path d="M50 86 Q42 76 40 60" stroke="#D85A30" stroke-width="1.5" fill="none"/>
  <path d="M50 86 Q50 76 50 60" stroke="#D85A30" stroke-width="1.5" fill="none"/>
  <path d="M50 86 Q58 76 60 60" stroke="#D85A30" stroke-width="1.5" fill="none"/>
  <path d="M50 86 Q65 75 66 60" stroke="#D85A30" stroke-width="1.5" fill="none"/>
  <!-- Shell top (open) -->
  <ellipse cx="50" cy="42" rx="28" ry="18" fill="#F5C4B3" stroke="#F0997B" stroke-width="1.5"/>
  <path d="M50 24 Q35 33 34 48" stroke="#D85A30" stroke-width="1.5" fill="none"/>
  <path d="M50 24 Q42 34 40 48" stroke="#D85A30" stroke-width="1.5" fill="none"/>
  <path d="M50 24 Q50 34 50 48" stroke="#D85A30" stroke-width="1.5" fill="none"/>
  <path d="M50 24 Q58 34 60 48" stroke="#D85A30" stroke-width="1.5" fill="none"/>
  <path d="M50 24 Q65 33 66 48" stroke="#D85A30" stroke-width="1.5" fill="none"/>
  <!-- Face inside shell -->
  <circle cx="50" cy="52" r="12" fill="#FDE68A"/>
  <!-- Eyes with lashes -->
  <circle cx="45" cy="50" r="2.5" fill="#1C1917"/>
  <circle cx="55" cy="50" r="2.5" fill="#1C1917"/>
  <line x1="43" y1="47" x2="42" y2="45" stroke="#1C1917" stroke-width="1.2"/>
  <line x1="45" y1="47" x2="45" y2="44" stroke="#1C1917" stroke-width="1.2"/>
  <line x1="47" y1="47" x2="48" y2="45" stroke="#1C1917" stroke-width="1.2"/>
  <line x1="53" y1="47" x2="52" y2="45" stroke="#1C1917" stroke-width="1.2"/>
  <line x1="55" y1="47" x2="55" y2="44" stroke="#1C1917" stroke-width="1.2"/>
  <line x1="57" y1="47" x2="58" y2="45" stroke="#1C1917" stroke-width="1.2"/>
  <!-- Smile -->
  <path d="M45 56 Q50 61 55 56" stroke="#D85A30" stroke-width="1.5" fill="none" stroke-linecap="round"/>
  <!-- Bikini top on shell edge -->
  <path d="M37 60 Q44 65 50 60 Q56 65 63 60" fill="#EC4899" stroke="#BE185D" stroke-width="1"/>
  <!-- Hair -->
  <path d="M38 44 Q36 36 42 32" stroke="#92400E" stroke-width="3" fill="none" stroke-linecap="round"/>
  <path d="M62 44 Q64 36 58 32" stroke="#92400E" stroke-width="3" fill="none" stroke-linecap="round"/>
  <ellipse cx="50" cy="34" rx="10" ry="5" fill="#92400E"/>
</svg>