<svg xmlns="http://www.w3.org/2000/svg" viewBox="0 0 100 100">
  <circle cx="50" cy="50" r="50" fill="#FEF9C3"/>
  <!-- Pineapple body -->
  <ellipse cx="50" cy="64" rx="22" ry="28" fill="#F59E0B"/>
  <!-- Diamond pattern on pineapple -->
  <line x1="34" y1="48" x2="66" y2="48" stroke="#D97706" stroke-width="1" opacity="0.6"/>
  <line x1="32" y1="56" x2="68" y2="56" stroke="#D97706" stroke-width="1" opacity="0.6"/>
  <line x1="30" y1="64" x2="70" y2="64" stroke="#D97706" stroke-width="1" opacity="0.6"/>
  <line x1="30" y1="72" x2="70" y2="72" stroke="#D97706" stroke-width="1" opacity="0.6"/>
  <line x1="32" y1="80" x2="68" y2="80" stroke="#D97706" stroke-width="1" opacity="0.6"/>
  <line x1="38" y1="44" x2="44" y2="92" stroke="#D97706" stroke-width="1" opacity="0.6"/>
  <line x1="46" y1="42" x2="48" y2="92" stroke="#D97706" stroke-width="1" opacity="0.6"/>
  <line x1="54" y1="42" x2="52" y2="92" stroke="#D97706" stroke-width="1" opacity="0.6"/>
  <line x1="62" y1="44" x2="56" y2="92" stroke="#D97706" stroke-width="1" opacity="0.6"/>
  <!-- Face -->
  <ellipse cx="50" cy="60" rx="16" ry="14" fill="#FCD34D"/>
  <!-- Sunglasses -->
  <rect x="36" y="55" width="11" height="8" rx="4" fill="#EC4899"/>
  <rect x="53" y="55" width="11" height="8" rx="4" fill="#EC4899"/>
  <line x1="47" y1="59" x2="53" y2="59" stroke="#BE185D" stroke-width="1.5"/>
  <line x1="31" y1="59" x2="36" y2="59" stroke="#BE185D" stroke-width="1.5"/>
  <line x1="64" y1="59" x2="69" y2="59" stroke="#BE185D" stroke-width="1.5"/>
  <!-- Big happy smile -->
  <path d="M40 67 Q50 76 60 67" stroke="#D97706" stroke-width="2" fill="#FDE68A" stroke-linecap="round"/>
  <!-- Pineapple leaves/crown -->
  <path d="M50 36 Q44 20 38 14" stroke="#16A34A" stroke-width="4" fill="none" stroke-linecap="round"/>
  <path d="M50 36 Q50 18 50 10" stroke="#16A34A" stroke-width="4" fill="none" stroke-linecap="round"/>
  <path d="M50 36 Q56 20 62 14" stroke="#16A34A" stroke-width="4" fill="none" stroke-linecap="round"/>
  <path d="M50 36 Q40 22 36 18" stroke="#15803D" stroke-width="3" fill="none" stroke-linecap="round"/>
  <path d="M50 36 Q60 22 64 18" stroke="#15803D" stroke-width="3" fill="none" stroke-linecap="round"/>
  <!-- Straw -->
  <line x1="62" y1="44" x2="76" y2="20" stroke="#EC4899" stroke-width="2.5" stroke-linecap="round"/>
  <ellipse cx="77" cy="18" rx="5" ry="3" fill="#FDE68A" stroke="#F59E0B" stroke-width="1"/>
</svg>