<svg xmlns="http://www.w3.org/2000/svg" viewBox="0 0 100 100">
  <circle cx="50" cy="50" r="50" fill="#FEF3C7"/>
  <!-- Body -->
  <ellipse cx="50" cy="62" rx="22" ry="16" fill="#DC2626"/>
  <!-- Shell pattern -->
  <ellipse cx="50" cy="60" rx="16" ry="11" fill="#EF4444"/>
  <ellipse cx="50" cy="58" rx="10" ry="7" fill="#DC2626"/>
  <!-- Legs -->
  <line x1="30" y1="66" x2="14" y2="74" stroke="#DC2626" stroke-width="3" stroke-linecap="round"/>
  <line x1="32" y1="70" x2="16" y2="80" stroke="#DC2626" stroke-width="3" stroke-linecap="round"/>
  <line x1="34" y1="74" x2="20" y2="86" stroke="#DC2626" stroke-width="3" stroke-linecap="round"/>
  <line x1="70" y1="66" x2="86" y2="74" stroke="#DC2626" stroke-width="3" stroke-linecap="round"/>
  <line x1="68" y1="70" x2="84" y2="80" stroke="#DC2626" stroke-width="3" stroke-linecap="round"/>
  <line x1="66" y1="74" x2="80" y2="86" stroke="#DC2626" stroke-width="3" stroke-linecap="round"/>
  <!-- Big claws -->
  <ellipse cx="20" cy="56" rx="10" ry="7" fill="#DC2626" transform="rotate(-20 20 56)"/>
  <ellipse cx="80" cy="56" rx="10" ry="7" fill="#DC2626" transform="rotate(20 80 56)"/>
  <!-- Claw details -->
  <ellipse cx="15" cy="52" rx="5" ry="4" fill="#EF4444" transform="rotate(-20 15 52)"/>
  <ellipse cx="85" cy="52" rx="5" ry="4" fill="#EF4444" transform="rotate(20 85 52)"/>
  <!-- Head -->
  <ellipse cx="50" cy="42" rx="16" ry="14" fill="#DC2626"/>
  <!-- Eyes on stalks -->
  <line x1="43" y1="32" x2="40" y2="24" stroke="#DC2626" stroke-width="2.5"/>
  <line x1="57" y1="32" x2="60" y2="24" stroke="#DC2626" stroke-width="2.5"/>
  <circle cx="39" cy="22" r="5" fill="white"/>
  <circle cx="61" cy="22" r="5" fill="white"/>
  <circle cx="39" cy="22" r="3" fill="#1C1917"/>
  <circle cx="61" cy="22" r="3" fill="#1C1917"/>
  <!-- DJ smile -->
  <path d="M43 48 Q50 54 57 48" stroke="#92400E" stroke-width="2" fill="none" stroke-linecap="round"/>
  <!-- Headphones -->
  <path d="M34 38 Q34 20 50 18 Q66 20 66 38" stroke="#1C1917" stroke-width="3" fill="none"/>
  <rect x="28" y="34" width="10" height="12" rx="4" fill="#1C1917"/>
  <rect x="62" y="34" width="10" height="12" rx="4" fill="#1C1917"/>
  <!-- Music notes -->
  <text x="14" y="22" font-size="12" fill="#F59E0B">♪</text>
  <text x="76" y="22" font-size="12" fill="#F59E0B">♫</text>
</svg>